<svg xmlns="http://www.w3.org/2000/svg" viewBox="0 0 200 200">
  <defs>
    <style>
      .a {
        fill: #fff;
      }
    </style>
  </defs>
  <title>ic_instagram</title>
  <g>
    <path class="a" d="M100,33.59459c21.628,0,24.18972.08249,32.73089.47217,7.89736.36037,12.18636,1.67983,15.04061,2.78908a26.82428,26.82428,0,0,1,15.37266,15.37267c1.10924,2.85423,2.42872,7.14324,2.78908,15.04048.38968,8.54129.47217,11.103.47217,32.731s-.08249,24.18972-.47217,32.73089c-.36036,7.89736-1.67984,12.18636-2.78908,15.04061a26.82431,26.82431,0,0,1-15.37266,15.37266c-2.85425,1.10924-7.14325,2.42872-15.04061,2.78908-8.53994.38968-11.10146.47217-32.73089.47217s-24.19095-.08249-32.73089-.47217c-7.89736-.36036-12.18637-1.67984-15.0406-2.78908A26.82428,26.82428,0,0,1,36.85584,147.7715c-1.10925-2.85425-2.42871-7.14325-2.78908-15.0405-.38968-8.54128-.47217-11.103-.47217-32.731s.08249-24.18972.47217-32.73089c.36037-7.89736,1.67983-12.18637,2.78908-15.0406A26.82426,26.82426,0,0,1,52.22851,36.85584c2.85423-1.10925,7.14324-2.42871,15.04048-2.78908,8.54129-.38968,11.103-.47217,32.731-.47217M100,19c-21.99831,0-24.7567.09317-33.39617.48734-8.62167.39341-14.5096,1.76268-19.662,3.76506A41.41843,41.41843,0,0,0,23.2524,46.94182c-2.00238,5.15241-3.37165,11.04034-3.76506,19.662C19.09317,75.2433,19,78.00162,19,100s.09317,24.75669.48734,33.39616c.39341,8.62168,1.76268,14.5096,3.76506,19.662A41.41848,41.41848,0,0,0,46.94182,176.7476c5.15241,2.00239,11.04034,3.37165,19.662,3.76505C75.2433,180.9069,78.00169,181,100,181s24.75669-.0931,33.39616-.48735c8.62168-.3934,14.5096-1.76266,19.662-3.76505a41.41854,41.41854,0,0,0,23.68943-23.68943c2.00239-5.15241,3.37165-11.04033,3.76505-19.662C180.90682,124.75669,181,121.99832,181,100s-.09318-24.7567-.48735-33.39617c-.3934-8.62167-1.76266-14.5096-3.76505-19.662A41.41848,41.41848,0,0,0,153.05817,23.2524c-5.15241-2.00238-11.04033-3.37165-19.662-3.76506C124.75669,19.09317,121.99832,19,100,19Z"/>
    <path class="a" d="M100,58.40541A41.59459,41.59459,0,1,0,141.59459,100,41.59458,41.59458,0,0,0,100,58.40541ZM100,127a27,27,0,1,1,27-27A27,27,0,0,1,100,127Z"/>
    <circle class="a" cx="143.23801" cy="56.76199" r="9.72"/>
  </g>
</svg>
