<svg xmlns="http://www.w3.org/2000/svg" viewBox="0 0 200 200">
  <defs>
    <style>
      .a {
        fill: #fff;
      }
    </style>
  </defs>
  <title>ic_personal</title>
  <path class="a" d="M121.34279,124.12664H78.286A61.871,61.871,0,0,0,16.67031,180.917,3.70678,3.70678,0,0,0,20.3821,185a3.7973,3.7973,0,0,0,3.71179-3.34062A54.27751,54.27751,0,0,1,78.286,131.55023h43.24236a54.70814,54.70814,0,0,1,54.37772,49.92358,3.66189,3.66189,0,0,0,3.71179,3.34062,3.7068,3.7068,0,0,0,3.7118-4.083A62.19523,62.19523,0,0,0,121.34279,124.12664ZM99.81441,101.67031A43.33525,43.33525,0,1,0,56.57205,58.428,43.28569,43.28569,0,0,0,99.81441,101.67031Zm0-79.24673A35.81878,35.81878,0,1,1,63.99563,58.428,35.84033,35.84033,0,0,1,99.81441,22.42358Z"/>
</svg>
