<svg xmlns="http://www.w3.org/2000/svg" viewBox="0 0 200 200">
  <defs>
    <style>
      .a {
        fill: #fff;
      }
    </style>
  </defs>
  <title>ic_tiktok</title>
  <path class="a" d="M173.97534,83.49735q-2.11989.206-4.252.21568a46.16793,46.16793,0,0,1-38.63147-20.87788v71.09448A52.54595,52.54595,0,1,1,78.54594,81.38368h0c1.09689,0,2.16913.0986,3.24754.16639v25.894a26.958,26.958,0,0,0-3.24754-.3266,26.81834,26.81834,0,0,0,0,53.63667c14.81417,0,27.89674-11.67141,27.89674-26.48557l.25882-120.74413H131.474A46.14333,46.14333,0,0,0,174,54.71941V83.49735"/>
</svg>
