<svg xmlns="http://www.w3.org/2000/svg" viewBox="0 0 200 200">
  <defs>
    <style>
      .a {
        fill: #fff;
        fill-rule: evenodd;
      }
    </style>
  </defs>
  <title>ic_vk</title>
  <path class="a" d="M98.271,145.5732h9.63043s2.90888-.32018,4.395-1.92044c1.3678-1.47008,1.32349-4.23056,1.32349-4.23056s-.18816-12.922,5.80867-14.82455c5.91276-1.87613,13.50409,12.48894,21.55064,18.01173,6.08454,4.179,10.70932,3.26457,10.70932,3.26457l21.51665-.30075s11.25468-.695,5.91853-9.543c-.43732-.7232-3.10918-6.54674-15.99811-18.51126-13.49378-12.52323-11.68593-10.496,4.56711-32.15773,9.89568-13.19146,13.85219-21.24383,12.61641-24.69347-1.17812-3.28551-8.45838-2.41846-8.45838-2.41846l-24.22524.14962a5.496,5.496,0,0,0-3.12831.55264,6.76243,6.76243,0,0,0-2.13834,2.59934,140.497,140.497,0,0,1-8.94729,18.88909c-10.78792,18.317-15.10315,19.28788-16.86517,18.1483-4.10158-2.65123-3.07762-10.64862-3.07762-16.33316,0-17.75256,2.694-25.15269-5.243-27.06888-2.633-.6358-4.57288-1.05648-11.30778-1.12471-8.64533-.0874-15.95958.0267-20.103,2.0567-2.75624,1.34868-4.88244,4.35681-3.58748,4.52858,1.60179.21335,5.22659.97964,7.15007,3.595,2.4834,3.37873,2.396,10.96277,2.396,10.96277s1.427,20.8969-3.331,23.49168c-3.26457,1.78119-7.74429-1.85363-17.36288-18.47267a154.44464,154.44464,0,0,1-8.64806-17.92311,7.182,7.182,0,0,0-1.99753-2.69979,10.00989,10.00989,0,0,0-3.721-1.501l-23.02224.14961s-3.45394.09621-4.724,1.60027c-1.12926,1.33806-.09044,4.10036-.09044,4.10036s18.02387,42.16747,38.4319,63.41736C77.0241,146.85208,98.271,145.5732,98.271,145.5732Z"/>
</svg>
